<?xml version="1.0" ?><!DOCTYPE svg  PUBLIC '-//W3C//DTD SVG 1.1//EN'  'http://www.w3.org/Graphics/SVG/1.1/DTD/svg11.dtd'><svg width="846.66px" height="846.66px" viewBox="0 0 846.66 846.66" style="shape-rendering:geometricPrecision; text-rendering:geometricPrecision; image-rendering:optimizeQuality; fill-rule:evenodd; clip-rule:evenodd" version="1.1" xml:space="preserve" xmlns="http://www.w3.org/2000/svg" xmlns:xlink="http://www.w3.org/1999/xlink"><defs><style type="text/css">
   <![CDATA[
    .fil0 {fill:white;fill-rule:nonzero}
   ]]>
  </style></defs><g id="Layer_x0020_1"><path class="fil0" d="M206.47 10.7l433.72 0c38.79,0 70.66,31.87 70.66,70.66l0 683.94c0,38.79 -31.87,70.66 -70.66,70.66l-433.72 0c-38.81,0 -70.66,-31.85 -70.66,-70.66l0 -683.94c0,-38.81 31.85,-70.66 70.66,-70.66zm119.86 383.88c-17.78,20.32 -48.73,-6.76 -30.94,-27.08l97.44 -111.03 -8.5 -0.34c-27.03,-1.05 -25.42,-42.16 1.61,-41.1l51.58 2.07c16.96,0.68 26.15,20.96 14.67,34.09l-125.86 143.39zm171.27 164.92l0 -294c0,-27.14 41.27,-27.14 41.27,0l0 294 52.76 0 0 -393.03 -336.6 0 0 393.03 52.76 0 0 -96.97c0,-27.13 41.27,-27.13 41.27,0l0 96.97 22 0 0 -168.15c0,-27.13 41.27,-27.13 41.27,0l0 168.15 22 0 0 -231.08c0,-27.13 41.26,-27.13 41.26,0l0 231.08 22.01 0zm94.03 41.26c-112.2,0 -224.4,0 -336.6,0l0 79.43 336.6 0 0 -79.43zm-357.23 -475.55l377.86 0c11.39,0 20.63,9.24 20.63,20.63l0 554.98c0,11.39 -9.24,20.63 -20.63,20.63l-377.86 0c-11.39,0 -20.63,-9.24 -20.63,-20.63l0 -554.98c0,-11.39 9.24,-20.63 20.63,-20.63zm405.79 -73.25l-433.72 0c-16.22,0 -29.4,13.18 -29.4,29.4l0 683.94c0,16.22 13.18,29.4 29.4,29.4l433.72 0c16.24,0 29.4,-13.17 29.4,-29.4l0 -683.94c0,-16.23 -13.16,-29.4 -29.4,-29.4z"/></g></svg>